# xmcd
#
# Track frame offsets: 
#        150
#        20553
#        40121
#        58047
#        74560
#        87311
#        101659
#        119107
#        139185
#        161397
#        174725
#
# Disc length: 2463 seconds
#
# Revision: 2
# Processed by: cddbd v1.5.2PL0 Copyright (c) Steve Scherf et al.
# Submitted via: ExactAudioCopy v0.99pb5
#
DISCID=9e099d0b
DTITLE=Harold Lopez-Nussa - Sobre El Atelier
DYEAR=2007
DGENRE=Latin Jazz
TTITLE0=Timbeando
TTITLE1=Levitando
TTITLE2=Mi son cerra'o
TTITLE3=Sobre el Atelier
TTITLE4=La Jungla
TTITLE5=Bruma en otono
TTITLE6=Footprints
TTITLE7=E'cha
TTITLE8=Three Views Of A Secret
TTITLE9=Mambo influenciado
TTITLE10=Danza de los nanigos
EXTD=YEAR: 2007
EXTT0=
EXTT1=
EXTT2=
EXTT3=
EXTT4=
EXTT5=
EXTT6=
EXTT7=
EXTT8=
EXTT9=
EXTT10=
PLAYORDER=
